<?xml version="1.0" encoding="UTF-8"?> <svg xmlns="http://www.w3.org/2000/svg" width="216" height="39" viewBox="0 0 216 39" fill="none"> <g clip-path="url(#clip0_1306_10)"> <path d="M0 20.5002H20.277V39H0V20.5002ZM20.635 0H41.5758V20.5002H20.635V0Z" fill="#00ADE5"></path> <path d="M3.92969 3.56744H37.5599V36.0059H3.92969V3.56744Z" fill="#00ADE5"></path> <path d="M10.1641 12.3396V31.9479H16.6975V6.11566L10.1641 12.3396ZM31.71 12.3396V31.9479H25.1766V6.11566L31.71 12.3396ZM24.207 17.436V31.9479H17.6671V11.212L24.207 17.436Z" fill="white"></path> <path d="M48.5977 9.73403V23.2395H51.3177V14.8687L56.8295 23.2395L62.2111 14.9451V23.2395H65.1785V9.73403H62.2111L56.8881 17.9902L51.3177 9.73403H48.5977ZM80.1911 12.4543V9.73403H66.4474V23.2395H80.1911V20.5002H69.174V17.6717H77.2823V15.0216H69.174V12.4543H80.1911ZM95.3793 9.73403H81.46V12.4543H87.0303V23.2395H89.7504V12.4543H95.3793V9.73403ZM159.354 20.6339V9.73403H156.386V23.2395H167.52V20.6339H159.354ZM168.796 9.73403H171.64V23.2458H168.796V9.73403ZM186.587 9.73403H172.908V12.4543H178.414V23.2395H181.14V12.4543H186.587V9.73403ZM213.215 9.73403V18.8693L205.166 9.73403H202.14V23.2395H205.166V14.1424L213.215 23.2395H216V9.73403H213.215ZM121.819 9.73403H114.264C113.862 9.73486 113.465 9.81343 113.094 9.96522C112.724 10.117 112.388 10.3391 112.105 10.6185C111.823 10.898 111.6 11.2294 111.449 11.5936C111.297 11.9579 111.221 12.3478 111.225 12.7409V20.2708C111.227 21.0593 111.547 21.815 112.117 22.3726C112.686 22.9302 113.458 23.2441 114.264 23.2458H121.819C122.624 23.2441 123.396 22.9302 123.966 22.3726C124.535 21.815 124.856 21.0593 124.858 20.2708V12.7409C124.86 12.348 124.784 11.9585 124.632 11.5946C124.481 11.2308 124.258 10.8997 123.975 10.6204C123.693 10.3411 123.357 10.1191 122.987 9.96694C122.617 9.81484 122.22 9.7357 121.819 9.73403ZM122.151 19.8567C122.151 20.1254 122.042 20.383 121.848 20.573C121.654 20.7629 121.39 20.8696 121.116 20.8696H114.719C114.445 20.8696 114.182 20.7629 113.988 20.573C113.794 20.383 113.685 20.1254 113.685 19.8567V13.1996C113.685 12.931 113.794 12.6733 113.988 12.4834C114.182 12.2934 114.445 12.1867 114.719 12.1867H121.116C121.39 12.1867 121.654 12.2934 121.848 12.4834C122.042 12.6733 122.151 12.931 122.151 13.1996V19.8567ZM151.961 9.73403H144.406C144.004 9.73486 143.607 9.81343 143.237 9.96522C142.866 10.117 142.53 10.3391 142.248 10.6185C141.965 10.898 141.742 11.2294 141.591 11.5936C141.44 11.9579 141.364 12.3478 141.367 12.7409V20.2708C141.369 21.0593 141.69 21.815 142.259 22.3726C142.829 22.9302 143.601 23.2441 144.406 23.2458H151.961C152.767 23.2441 153.539 22.9302 154.108 22.3726C154.678 21.815 154.998 21.0593 155 20.2708V12.7409C155.004 12.3478 154.928 11.9579 154.776 11.5936C154.625 11.2294 154.402 10.898 154.12 10.6185C153.837 10.3391 153.501 10.117 153.131 9.96522C152.76 9.81343 152.363 9.73486 151.961 9.73403ZM152.273 19.8567C152.273 20.1254 152.164 20.383 151.97 20.573C151.776 20.7629 151.513 20.8696 151.239 20.8696H144.842C144.569 20.868 144.307 20.7605 144.115 20.5707C143.922 20.381 143.814 20.1243 143.814 19.8567V13.1996C143.814 12.931 143.923 12.6733 144.117 12.4834C144.311 12.2934 144.574 12.1867 144.849 12.1867H151.239C151.513 12.1867 151.776 12.2934 151.97 12.4834C152.164 12.6733 152.273 12.931 152.273 13.1996V19.8567ZM110.392 16.3466V12.4543C110.392 10.8362 108.719 9.72766 106.904 9.72766H96.6548V23.2395H99.6221V19.0158H102.167L106.559 23.2395H110.411L106.071 19.0158H107.288C108.054 19.0358 108.799 18.772 109.374 18.277C109.95 17.7821 110.313 17.0926 110.392 16.3466ZM99.6156 16.4868V12.4606H106.579C107.587 12.4606 107.913 12.8938 107.913 14.3718C107.913 15.8497 107.672 16.4868 106.5 16.4868H99.6156ZM136.936 9.73403H126.127V23.2458H128.971V19.0222H136.936C137.741 19.0205 138.513 18.7065 139.083 18.149C139.652 17.5914 139.973 16.8357 139.975 16.0472V12.7409C139.978 12.3478 139.902 11.9579 139.751 11.5936C139.6 11.2294 139.377 10.898 139.094 10.6185C138.812 10.3391 138.476 10.117 138.105 9.96522C137.735 9.81343 137.337 9.73486 136.936 9.73403ZM137.124 15.6586C137.129 15.7759 137.109 15.8928 137.066 16.0024C137.023 16.112 136.958 16.212 136.875 16.2964C136.792 16.3809 136.692 16.448 136.582 16.4939C136.471 16.5397 136.353 16.5633 136.233 16.5632H128.964V12.4606H136.246C136.482 12.4606 136.709 12.5526 136.876 12.7162C137.043 12.8799 137.137 13.1019 137.137 13.3334L137.124 15.6586ZM197.825 9.73403H190.225C189.823 9.73486 189.426 9.81343 189.055 9.96522C188.685 10.117 188.349 10.3391 188.066 10.6185C187.784 10.898 187.56 11.2294 187.409 11.5936C187.258 11.9579 187.182 12.3478 187.186 12.7409V23.2458H189.912V20.5065H197.962V23.2458H200.864V12.7409C200.869 12.3476 200.793 11.9573 200.642 11.5927C200.492 11.228 200.268 10.8963 199.986 10.6167C199.703 10.337 199.367 10.115 198.996 9.9635C198.625 9.812 198.227 9.73401 197.825 9.73403ZM189.912 17.7927V13.2442C189.912 13.0364 189.997 12.8371 190.147 12.6901C190.297 12.5432 190.5 12.4606 190.713 12.4606H197.175C197.387 12.4606 197.59 12.5432 197.741 12.6901C197.891 12.8371 197.975 13.0364 197.975 13.2442V17.7927H189.912Z" fill="#6D6E70"></path> <path d="M84.8764 28.1893C85.0941 28.1678 85.314 28.1963 85.5185 28.2726C85.7229 28.3489 85.9064 28.4709 86.0542 28.6289C86.3134 29.0035 86.4391 29.4513 86.4121 29.903V30.54C86.4391 30.9917 86.3134 31.4395 86.0542 31.8141C85.9064 31.9721 85.7229 32.0941 85.5185 32.1704C85.314 32.2467 85.0941 32.2752 84.8764 32.2537H81.9155V33.8718C81.9155 33.9928 81.8635 34.0565 81.7593 34.0565H80.985C80.8743 34.0565 80.8223 33.9928 80.8223 33.8718V28.4123C80.8223 28.2467 80.8938 28.1575 81.037 28.1575H84.8764V28.1893ZM81.9155 31.1707H84.6551C84.7494 31.1783 84.8442 31.1658 84.933 31.1338C85.0218 31.1019 85.1024 31.0515 85.1692 30.986C85.2797 30.8175 85.3322 30.6188 85.3189 30.419V30.1005C85.3322 29.9007 85.2797 29.702 85.1692 29.5335C85.1041 29.4657 85.0237 29.4137 84.9345 29.3817C84.8452 29.3496 84.7496 29.3383 84.6551 29.3487H81.9936C81.9285 29.3487 81.9025 29.3487 81.9025 29.4507L81.9155 31.1707ZM91.2081 28.1893C91.4258 28.1678 91.6457 28.1963 91.8501 28.2726C92.0546 28.3489 92.2381 28.4709 92.3859 28.6289C92.6451 29.0035 92.7708 29.4513 92.7438 29.903V30.3808C92.7633 30.7774 92.6782 31.1723 92.4965 31.5274C92.4085 31.6695 92.2903 31.7914 92.15 31.8848C92.0096 31.9782 91.8504 32.041 91.6831 32.0689L92.9065 33.8527C92.9163 33.8725 92.9214 33.8943 92.9214 33.9164C92.9214 33.9384 92.9163 33.9602 92.9065 33.9801C92.9065 34.0374 92.8609 34.0629 92.7894 34.0629H91.8653C91.8229 34.0757 91.7776 34.0757 91.7352 34.0629C91.7079 34.0383 91.6839 34.0105 91.6636 33.9801L90.5313 32.2282H88.2212V33.9036C88.2212 34.0247 88.1691 34.0884 88.065 34.0884H87.2906C87.18 34.0884 87.1279 34.0247 87.1279 33.9036V28.4441C87.1279 28.2785 87.1995 28.1893 87.3427 28.1893H91.2081ZM88.2472 31.2153H90.9868C91.0811 31.2229 91.1759 31.2103 91.2647 31.1784C91.3535 31.1465 91.4341 31.0961 91.5009 31.0306C91.6114 30.8621 91.6639 30.6634 91.6506 30.4636V30.1068C91.6639 29.907 91.6114 29.7083 91.5009 29.5399C91.4341 29.4743 91.3535 29.4239 91.2647 29.392C91.1759 29.3601 91.0811 29.3475 90.9868 29.3551H88.3383C88.2732 29.3551 88.2472 29.387 88.2472 29.457V31.2153ZM98.5875 28.1893C98.6981 28.1893 98.7501 28.253 98.7501 28.3741V29.1767C98.7501 29.2978 98.6981 29.3615 98.5875 29.3615H95.4639C95.3077 29.355 95.1515 29.3743 95.0019 29.4188C94.8874 29.4499 94.7853 29.5143 94.709 29.6036C94.6321 29.7105 94.5789 29.832 94.5529 29.9603C94.5215 30.1434 94.5063 30.3289 94.5073 30.5145V30.5782H98.5419C98.646 30.5782 98.6981 30.642 98.6981 30.763V31.4C98.6981 31.5211 98.646 31.5848 98.5419 31.5848H94.5073V31.7249C94.5031 31.9107 94.5183 32.0964 94.5529 32.2792C94.5718 32.4095 94.6257 32.5326 94.709 32.6359C94.7853 32.7251 94.8874 32.7896 95.0019 32.8207C95.1515 32.8651 95.3077 32.8845 95.4639 32.878H98.5875C98.6981 32.878 98.7501 32.9417 98.7501 33.0627V33.8654C98.7501 33.9864 98.6981 34.0502 98.5875 34.0502H95.4379C95.1253 34.0578 94.8134 34.017 94.5138 33.9291C94.2638 33.8657 94.0379 33.733 93.8631 33.5469C93.6892 33.3498 93.5684 33.1133 93.5117 32.8589C93.4328 32.5204 93.3956 32.174 93.4011 31.8269V30.4254C93.3956 30.0804 93.4328 29.736 93.5117 29.3997C93.5684 29.1453 93.6892 28.9087 93.8631 28.7117C94.0404 28.5272 94.2652 28.393 94.5138 28.3231C94.8134 28.2352 95.1253 28.1944 95.4379 28.2021H98.5875V28.1893ZM100.995 28.1893C101.086 28.1766 101.178 28.1766 101.268 28.1893C101.341 28.208 101.41 28.2405 101.47 28.2849C101.533 28.3394 101.586 28.404 101.626 28.476C101.68 28.581 101.725 28.6896 101.763 28.8009L103.253 32.8461C103.259 32.8675 103.271 32.8865 103.289 32.9003C103.307 32.9141 103.328 32.9219 103.351 32.9226H103.468C103.491 32.9219 103.512 32.9141 103.53 32.9003C103.547 32.8865 103.56 32.8675 103.566 32.8461L105.056 28.8009C105.093 28.6896 105.139 28.581 105.192 28.476C105.23 28.4019 105.283 28.3367 105.349 28.2849C105.407 28.2407 105.473 28.2082 105.544 28.1893H106.579C106.672 28.1769 106.768 28.1886 106.856 28.2232C106.944 28.2579 107.021 28.3142 107.08 28.3868C107.184 28.5986 107.229 28.8339 107.21 29.0684V33.9036C107.21 34.0247 107.158 34.0884 107.047 34.0884H106.318C106.214 34.0884 106.162 34.0247 106.162 33.9036V29.5016C106.162 29.4443 106.162 29.4188 106.103 29.4188H106.038C106.017 29.417 105.996 29.4232 105.979 29.4362C105.962 29.4492 105.951 29.4681 105.947 29.4889L104.503 33.2666C104.455 33.3984 104.396 33.5263 104.327 33.6488C104.275 33.7428 104.209 33.8287 104.132 33.9036C104.067 33.9691 103.986 34.0173 103.897 34.0438C103.796 34.0742 103.691 34.0892 103.585 34.0884H103.24C103.134 34.0897 103.029 34.0746 102.928 34.0438C102.839 34.0173 102.758 33.9691 102.694 33.9036C102.616 33.8287 102.55 33.7428 102.498 33.6488C102.429 33.5263 102.371 33.3984 102.323 33.2666L100.865 29.4889C100.862 29.4681 100.851 29.4492 100.834 29.4362C100.817 29.4232 100.795 29.417 100.774 29.4188H100.709C100.67 29.4188 100.65 29.4188 100.65 29.5016V33.9036C100.65 34.0247 100.598 34.0884 100.494 34.0884H99.7653C99.6547 34.0884 99.6026 34.0247 99.6026 33.9036V29.0684C99.5831 28.8339 99.628 28.5986 99.7328 28.3868C99.7931 28.3142 99.8714 28.2579 99.9603 28.2233C100.049 28.1888 100.146 28.177 100.24 28.1893H100.995ZM109.058 28.1893C109.162 28.1893 109.214 28.253 109.214 28.3741V33.9036C109.214 34.0247 109.162 34.0884 109.058 34.0884H108.303C108.192 34.0884 108.14 34.0247 108.14 33.9036V28.3741C108.14 28.253 108.192 28.1893 108.303 28.1893H109.058ZM111.088 28.1893C111.192 28.1893 111.244 28.253 111.244 28.3741V31.7377C111.24 31.9256 111.255 32.1134 111.29 32.2983C111.316 32.4266 111.369 32.5481 111.446 32.655C111.522 32.7443 111.624 32.8087 111.739 32.8398C111.889 32.8842 112.045 32.9036 112.201 32.8971H114.153C114.309 32.9036 114.466 32.8842 114.615 32.8398C114.73 32.8087 114.832 32.7443 114.908 32.655C114.987 32.5498 115.038 32.4273 115.058 32.2983C115.089 32.113 115.104 31.9255 115.103 31.7377V28.3741C115.103 28.253 115.155 28.1893 115.259 28.1893H116.04C116.144 28.1893 116.196 28.253 116.196 28.3741V31.8523C116.201 32.1991 116.166 32.5452 116.092 32.8844C116.035 33.1373 115.917 33.3732 115.747 33.5724C115.573 33.7585 115.347 33.8912 115.097 33.9546C114.796 34.0394 114.485 34.0802 114.173 34.0756H112.11C111.797 34.0833 111.485 34.0425 111.186 33.9546C110.936 33.8912 110.71 33.7585 110.535 33.5724C110.361 33.3753 110.24 33.1388 110.184 32.8844C110.105 32.5459 110.068 32.1994 110.073 31.8523V28.3741C110.073 28.253 110.125 28.1893 110.236 28.1893H111.088ZM118.572 28.1893C118.662 28.1766 118.754 28.1766 118.845 28.1893C118.918 28.208 118.986 28.2405 119.047 28.2849C119.11 28.3394 119.162 28.404 119.203 28.476C119.256 28.581 119.302 28.6896 119.34 28.8009L120.83 32.8461C120.835 32.8675 120.848 32.8865 120.866 32.9003C120.883 32.9141 120.905 32.9219 120.927 32.9226H121.038C121.06 32.9219 121.082 32.9141 121.1 32.9003C121.117 32.8865 121.13 32.8675 121.136 32.8461L122.626 28.8009C122.663 28.6896 122.709 28.581 122.762 28.476C122.8 28.4019 122.853 28.3367 122.919 28.2849C122.977 28.2407 123.043 28.2082 123.114 28.1893H124.149C124.242 28.1769 124.338 28.1886 124.426 28.2232C124.514 28.2579 124.591 28.3142 124.65 28.3868C124.754 28.5986 124.799 28.8339 124.78 29.0684V33.9036C124.78 34.0247 124.728 34.0884 124.617 34.0884H123.888C123.784 34.0884 123.732 34.0247 123.732 33.9036V29.5016C123.732 29.4443 123.732 29.4188 123.673 29.4188H123.608C123.587 29.417 123.566 29.4232 123.549 29.4362C123.532 29.4492 123.521 29.4681 123.517 29.4889L122.073 33.2666C122.025 33.3984 121.966 33.5263 121.897 33.6488C121.845 33.7428 121.779 33.8287 121.702 33.9036C121.637 33.9691 121.556 34.0173 121.467 34.0438C121.366 34.0742 121.261 34.0892 121.155 34.0884H120.81C120.704 34.0897 120.599 34.0746 120.498 34.0438C120.41 34.0139 120.331 33.9661 120.264 33.9036C120.186 33.8287 120.12 33.7428 120.068 33.6488C119.999 33.5263 119.941 33.3984 119.893 33.2666L118.435 29.4889C118.432 29.4681 118.421 29.4492 118.404 29.4362C118.387 29.4232 118.365 29.417 118.344 29.4188H118.279C118.24 29.4188 118.22 29.4188 118.22 29.5016V33.9036C118.22 34.0247 118.168 34.0884 118.064 34.0884H117.335C117.225 34.0884 117.173 34.0247 117.173 33.9036V29.0684C117.153 28.8339 117.198 28.5986 117.303 28.3868C117.363 28.3142 117.441 28.2579 117.53 28.2233C117.619 28.1888 117.716 28.177 117.81 28.1893H118.572ZM132.146 28.1893C132.364 28.1678 132.584 28.1963 132.788 28.2726C132.993 28.3489 133.176 28.4709 133.324 28.6289C133.583 29.0035 133.709 29.4513 133.682 29.903V30.54C133.709 30.9917 133.583 31.4395 133.324 31.8141C133.176 31.9721 132.993 32.0941 132.788 32.1704C132.584 32.2467 132.364 32.2752 132.146 32.2537H129.185V33.8718C129.185 33.9928 129.133 34.0565 129.029 34.0565H128.255C128.144 34.0565 128.092 33.9928 128.092 33.8718V28.4123C128.092 28.2467 128.164 28.1575 128.307 28.1575H132.146V28.1893ZM129.185 31.1707H131.925C132.019 31.1783 132.114 31.1658 132.203 31.1338C132.291 31.1019 132.372 31.0515 132.439 30.986C132.549 30.8175 132.602 30.6188 132.589 30.419V30.1005C132.602 29.9007 132.549 29.702 132.439 29.5335C132.374 29.4657 132.293 29.4137 132.204 29.3817C132.115 29.3496 132.019 29.3383 131.925 29.3487H129.276C129.211 29.3487 129.185 29.3487 129.185 29.4507V31.1707ZM138.452 28.1893C138.669 28.1678 138.889 28.1963 139.094 28.2726C139.298 28.3489 139.482 28.4709 139.63 28.6289C139.889 29.0035 140.015 29.4513 139.987 29.903V30.3808C140.007 30.7774 139.922 31.1723 139.74 31.5274C139.652 31.6695 139.534 31.7914 139.394 31.8848C139.253 31.9782 139.094 32.041 138.927 32.0689L140.15 33.8527C140.16 33.8725 140.165 33.8943 140.165 33.9164C140.165 33.9384 140.16 33.9602 140.15 33.9801C140.15 34.0374 140.105 34.0629 140.033 34.0629H139.109C139.067 34.0757 139.021 34.0757 138.979 34.0629C138.952 34.0383 138.928 34.0105 138.907 33.9801L137.775 32.2282H135.465V33.9036C135.465 34.0247 135.413 34.0884 135.309 34.0884H134.534C134.424 34.0884 134.372 34.0247 134.372 33.9036V28.4441C134.372 28.2785 134.443 28.1893 134.586 28.1893H138.452ZM135.491 31.2153H138.237C138.331 31.2229 138.426 31.2103 138.515 31.1784C138.604 31.1465 138.684 31.0961 138.751 31.0306C138.862 30.8621 138.914 30.6634 138.901 30.4636V30.1068C138.914 29.907 138.862 29.7083 138.751 29.5399C138.684 29.4743 138.604 29.4239 138.515 29.392C138.426 29.3601 138.331 29.3475 138.237 29.3551H135.589C135.523 29.3551 135.497 29.387 135.497 29.457L135.491 31.2153ZM144.894 28.1893C145.207 28.1816 145.519 28.2225 145.818 28.3104C146.067 28.3802 146.292 28.5145 146.469 28.699C146.638 28.8981 146.756 29.134 146.814 29.387C146.893 29.7233 146.93 30.0676 146.924 30.4126V31.8523C146.93 32.1994 146.893 32.5459 146.814 32.8844C146.756 33.1373 146.638 33.3732 146.469 33.5724C146.294 33.7585 146.068 33.8912 145.818 33.9546C145.518 34.0394 145.207 34.0802 144.894 34.0756H142.682C142.369 34.0833 142.057 34.0425 141.758 33.9546C141.507 33.8933 141.28 33.7602 141.107 33.5724C140.933 33.3753 140.812 33.1388 140.755 32.8844C140.676 32.5459 140.639 32.1994 140.645 31.8523V30.4126C140.639 30.0676 140.676 29.7233 140.755 29.387C140.812 29.1325 140.933 28.896 141.107 28.699C141.283 28.5127 141.508 28.3781 141.758 28.3104C142.057 28.2225 142.369 28.1816 142.682 28.1893H144.894ZM141.777 31.7695C141.773 31.9553 141.788 32.141 141.823 32.3238C141.849 32.452 141.902 32.5736 141.979 32.6805C142.055 32.7697 142.157 32.8342 142.272 32.8652C142.421 32.9097 142.577 32.9291 142.734 32.9226H144.855C145.011 32.9291 145.167 32.9097 145.317 32.8652C145.432 32.8342 145.534 32.7697 145.61 32.6805C145.687 32.5736 145.74 32.452 145.766 32.3238C145.801 32.141 145.816 31.9553 145.812 31.7695V30.4954C145.816 30.3096 145.801 30.1239 145.766 29.9412C145.74 29.8129 145.687 29.6914 145.61 29.5845C145.534 29.4952 145.432 29.4308 145.317 29.3997C145.167 29.3552 145.011 29.3358 144.855 29.3424H142.734C142.577 29.3358 142.421 29.3552 142.272 29.3997C142.157 29.4308 142.055 29.4952 141.979 29.5845C141.902 29.6914 141.849 29.8129 141.823 29.9412C141.788 30.1239 141.773 30.3096 141.777 30.4954V31.7695ZM151.844 28.1893C152.062 28.1678 152.282 28.1963 152.486 28.2726C152.691 28.3489 152.874 28.4709 153.022 28.6289C153.281 29.0035 153.407 29.4513 153.38 29.903V30.54C153.407 30.9917 153.281 31.4395 153.022 31.8141C152.874 31.9721 152.691 32.0941 152.486 32.1704C152.282 32.2467 152.062 32.2752 151.844 32.2537H148.883V33.8718C148.883 33.9928 148.831 34.0565 148.727 34.0565H147.953C147.842 34.0565 147.79 33.9928 147.79 33.8718V28.4123C147.79 28.2467 147.861 28.1575 148.005 28.1575H151.844V28.1893ZM148.877 31.1707H151.623C151.717 31.1783 151.812 31.1658 151.901 31.1338C151.989 31.1019 152.07 31.0515 152.137 30.986C152.247 30.8175 152.3 30.6188 152.286 30.419V30.1005C152.3 29.9007 152.247 29.702 152.137 29.5335C152.07 29.468 151.989 29.4175 151.901 29.3856C151.812 29.3537 151.717 29.3411 151.623 29.3487H148.974C148.909 29.3487 148.883 29.3487 148.883 29.4507L148.877 31.1707ZM159.184 28.1893C159.295 28.1893 159.347 28.253 159.347 28.3741V29.1767C159.347 29.2978 159.295 29.3615 159.184 29.3615H156.061C155.905 29.355 155.748 29.3743 155.599 29.4188C155.484 29.4499 155.382 29.5143 155.306 29.6036C155.229 29.7105 155.176 29.832 155.15 29.9603C155.118 30.1434 155.103 30.3289 155.104 30.5145V30.5782H159.145C159.249 30.5782 159.301 30.642 159.301 30.763V31.4C159.301 31.5211 159.249 31.5848 159.145 31.5848H155.104V31.7249C155.1 31.9107 155.115 32.0964 155.15 32.2792C155.169 32.4095 155.223 32.5326 155.306 32.6359C155.382 32.7251 155.484 32.7896 155.599 32.8207C155.748 32.8651 155.905 32.8845 156.061 32.878H159.184C159.295 32.878 159.347 32.9417 159.347 33.0627V33.8654C159.347 33.9864 159.295 34.0502 159.184 34.0502H156.035C155.722 34.0578 155.41 34.017 155.111 33.9291C154.861 33.8657 154.635 33.733 154.46 33.5469C154.286 33.3498 154.165 33.1133 154.109 32.8589C154.03 32.5204 153.992 32.174 153.998 31.8269V30.4254C153.993 30.0804 154.03 29.736 154.109 29.3997C154.189 29.1603 154.325 28.9423 154.505 28.7627C154.683 28.5782 154.908 28.4439 155.156 28.3741C155.456 28.2862 155.768 28.2453 156.08 28.253H159.23L159.184 28.1893ZM164.228 28.1893C164.445 28.1678 164.665 28.1963 164.87 28.2726C165.074 28.3489 165.258 28.4709 165.405 28.6289C165.665 29.0035 165.79 29.4513 165.763 29.903V30.3808C165.784 30.7782 165.696 31.1738 165.51 31.5274C165.421 31.6695 165.303 31.7914 165.163 31.8848C165.023 31.9782 164.863 32.041 164.696 32.0689L165.919 33.8527C165.929 33.8725 165.934 33.8943 165.934 33.9164C165.934 33.9384 165.929 33.9602 165.919 33.9801C165.919 34.0374 165.874 34.0629 165.802 34.0629H164.917C164.875 34.0757 164.83 34.0757 164.787 34.0629C164.76 34.0383 164.736 34.0105 164.716 33.9801L163.583 32.2282H161.273V33.9036C161.273 34.0247 161.221 34.0884 161.117 34.0884H160.343C160.232 34.0884 160.18 34.0247 160.18 33.9036V28.4441C160.18 28.2785 160.252 28.1893 160.395 28.1893H164.228ZM161.26 31.2153H163.987C164.081 31.2229 164.176 31.2103 164.265 31.1784C164.353 31.1465 164.434 31.0961 164.501 31.0306C164.611 30.8621 164.664 30.6634 164.651 30.4636V30.1068C164.664 29.907 164.611 29.7083 164.501 29.5399C164.434 29.4743 164.353 29.4239 164.265 29.392C164.176 29.3601 164.081 29.3475 163.987 29.3551H161.384C161.319 29.3551 161.293 29.387 161.293 29.457L161.26 31.2153ZM171.997 28.1893C172.108 28.1893 172.16 28.253 172.16 28.3741V29.2022C172.16 29.3296 172.108 29.3933 171.997 29.3933H169.752V33.9036C169.752 34.0247 169.7 34.0884 169.596 34.0884H168.822C168.718 34.0884 168.666 34.0247 168.666 33.9036V29.3806H166.414C166.303 29.3806 166.251 29.3169 166.251 29.1895V28.3613C166.251 28.2403 166.303 28.1766 166.414 28.1766L171.997 28.1893ZM173.748 28.1893C173.852 28.1893 173.904 28.253 173.904 28.3741V33.9036C173.904 34.0247 173.852 34.0884 173.748 34.0884H172.967C172.856 34.0884 172.804 34.0247 172.804 33.9036V28.3741C172.804 28.253 172.856 28.1893 172.967 28.1893H173.748ZM179.943 28.1893C180.054 28.1893 180.106 28.253 180.106 28.3741V29.1767C180.106 29.2978 180.054 29.3615 179.943 29.3615H176.819C176.663 29.355 176.507 29.3743 176.357 29.4188C176.243 29.4499 176.141 29.5143 176.064 29.6036C175.988 29.7105 175.934 29.832 175.908 29.9603C175.877 30.1434 175.862 30.3289 175.863 30.5145V30.5782H179.884C179.988 30.5782 180.041 30.642 180.041 30.763V31.4C180.041 31.5211 179.988 31.5848 179.884 31.5848H175.843V31.7249C175.839 31.9107 175.854 32.0964 175.889 32.2792C175.908 32.4095 175.962 32.5326 176.045 32.6359C176.121 32.7251 176.223 32.7896 176.338 32.8207C176.487 32.8651 176.644 32.8845 176.8 32.878H179.923C180.034 32.878 180.086 32.9417 180.086 33.0627V33.8654C180.086 33.9864 180.034 34.0502 179.923 34.0502H176.774C176.461 34.0578 176.149 34.017 175.85 33.9291C175.6 33.8657 175.374 33.733 175.199 33.5469C175.025 33.3498 174.904 33.1133 174.848 32.8589C174.769 32.5204 174.732 32.174 174.737 31.8269V30.4254C174.732 30.0804 174.769 29.736 174.848 29.3997C174.904 29.1453 175.025 28.9087 175.199 28.7117C175.376 28.5272 175.601 28.393 175.85 28.3231C176.149 28.2352 176.461 28.1944 176.774 28.2021H179.923L179.943 28.1893ZM185.897 28.1893C186.001 28.1893 186.053 28.253 186.053 28.3741V29.1767C186.053 29.2978 186.001 29.3615 185.897 29.3615H182.312C182.256 29.3579 182.2 29.3677 182.149 29.3899C182.098 29.4121 182.053 29.446 182.019 29.4889C181.955 29.5923 181.925 29.7124 181.934 29.8329V30.1196C181.934 30.4317 182.058 30.591 182.305 30.591H184.986C185.161 30.5781 185.337 30.6054 185.5 30.6706C185.663 30.7359 185.808 30.8373 185.923 30.9668C186.151 31.2796 186.262 31.66 186.236 32.0435V32.7187C186.251 33.0743 186.143 33.4244 185.93 33.7125C185.811 33.8444 185.663 33.9475 185.497 34.0138C185.331 34.0802 185.152 34.1079 184.973 34.0947H181.01C180.899 34.0947 180.847 34.031 180.847 33.91V33.1264C180.847 33.0054 180.899 32.9417 181.01 32.9417H184.765C184.821 32.9452 184.876 32.9355 184.927 32.9133C184.978 32.8911 185.023 32.8571 185.058 32.8143C185.121 32.7109 185.151 32.5907 185.142 32.4703V32.1072C185.142 31.795 185.019 31.6357 184.771 31.6357H182.09C181.923 31.6463 181.756 31.621 181.599 31.5615C181.443 31.5021 181.302 31.4101 181.186 31.2917C180.958 30.979 180.847 30.5986 180.873 30.2151V29.5781C180.858 29.2226 180.966 28.8724 181.179 28.5843C181.298 28.4525 181.446 28.3493 181.612 28.283C181.778 28.2167 181.957 28.189 182.136 28.2021L185.897 28.1893Z" fill="#00ADE5"></path> </g> <defs> <clipPath id="clip0_1306_10"> <rect width="216" height="39" fill="white"></rect> </clipPath> </defs> </svg> 