<?xml version="1.0" encoding="UTF-8"?> <svg xmlns="http://www.w3.org/2000/svg" width="216" height="39" viewBox="0 0 216 39" fill="none"> <g clip-path="url(#clip0_1294_2)"> <path d="M0 20.5002H20.277V39H0V20.5002ZM20.635 0H41.5758V20.5002H20.635V0Z" fill="#00ADE5"></path> <path d="M3.92969 3.56738H37.5599V36.0058H3.92969V3.56738Z" fill="#00ADE5"></path> <path d="M10.1641 12.3397V31.948H16.6975V6.11572L10.1641 12.3397ZM31.71 12.3397V31.948H25.1766V6.11572L31.71 12.3397ZM24.207 17.4361V31.948H17.6671V11.2121L24.207 17.4361Z" fill="white"></path> <path d="M48.5977 9.73391V23.2393H51.3177V14.8685L56.8295 23.2393L62.2111 14.9449V23.2393H65.1785V9.73391H62.2111L56.8881 17.99L51.3177 9.73391H48.5977ZM80.1911 12.4541V9.73391H66.4474V23.2393H80.1911V20.5H69.174V17.6715H77.2823V15.0214H69.174V12.4541H80.1911ZM95.3793 9.73391H81.46V12.4541H87.0303V23.2393H89.7504V12.4541H95.3793V9.73391ZM159.354 20.6337V9.73391H156.386V23.2393H167.52V20.6337H159.354ZM168.796 9.73391H171.64V23.2456H168.796V9.73391ZM186.587 9.73391H172.908V12.4541H178.414V23.2393H181.14V12.4541H186.587V9.73391ZM213.215 9.73391V18.8692L205.166 9.73391H202.14V23.2393H205.166V14.1422L213.215 23.2393H216V9.73391H213.215ZM121.819 9.73391H114.264C113.862 9.73474 113.465 9.81331 113.094 9.9651C112.724 10.1168 112.388 10.3389 112.105 10.6183C111.823 10.8978 111.6 11.2292 111.449 11.5934C111.297 11.9577 111.221 12.3476 111.225 12.7407V20.2706C111.227 21.0591 111.547 21.8148 112.117 22.3724C112.686 22.93 113.458 23.2439 114.264 23.2456H121.819C122.624 23.2439 123.396 22.93 123.966 22.3724C124.535 21.8148 124.856 21.0591 124.858 20.2706V12.7407C124.86 12.3478 124.784 11.9583 124.632 11.5944C124.481 11.2306 124.258 10.8995 123.975 10.6202C123.693 10.3409 123.357 10.1189 122.987 9.96682C122.617 9.81472 122.22 9.73558 121.819 9.73391ZM122.151 19.8566C122.151 20.1253 122.042 20.3828 121.848 20.5728C121.654 20.7627 121.39 20.8694 121.116 20.8694H114.719C114.445 20.8694 114.182 20.7627 113.988 20.5728C113.794 20.3828 113.685 20.1253 113.685 19.8566V13.1994C113.685 12.9308 113.794 12.6731 113.988 12.4832C114.182 12.2932 114.445 12.1865 114.719 12.1865H121.116C121.39 12.1865 121.654 12.2932 121.848 12.4832C122.042 12.6731 122.151 12.9308 122.151 13.1994V19.8566ZM151.961 9.73391H144.406C144.004 9.73474 143.607 9.81331 143.237 9.9651C142.866 10.1168 142.53 10.3389 142.248 10.6183C141.965 10.8978 141.742 11.2292 141.591 11.5934C141.44 11.9577 141.364 12.3476 141.367 12.7407V20.2706C141.369 21.0591 141.69 21.8148 142.259 22.3724C142.829 22.93 143.601 23.2439 144.406 23.2456H151.961C152.767 23.2439 153.539 22.93 154.108 22.3724C154.678 21.8148 154.998 21.0591 155 20.2706V12.7407C155.004 12.3476 154.928 11.9577 154.776 11.5934C154.625 11.2292 154.402 10.8978 154.12 10.6183C153.837 10.3389 153.501 10.1168 153.131 9.9651C152.76 9.81331 152.363 9.73474 151.961 9.73391ZM152.273 19.8566C152.273 20.1253 152.164 20.3828 151.97 20.5728C151.776 20.7627 151.513 20.8694 151.239 20.8694H144.842C144.569 20.8678 144.307 20.7603 144.115 20.5705C143.922 20.3808 143.814 20.1242 143.814 19.8566V13.1994C143.814 12.9308 143.923 12.6731 144.117 12.4832C144.311 12.2932 144.574 12.1865 144.849 12.1865H151.239C151.513 12.1865 151.776 12.2932 151.97 12.4832C152.164 12.6731 152.273 12.9308 152.273 13.1994V19.8566ZM110.392 16.3464V12.4541C110.392 10.836 108.719 9.72754 106.904 9.72754H96.6548V23.2393H99.6221V19.0156H102.167L106.559 23.2393H110.411L106.071 19.0156H107.288C108.054 19.0356 108.799 18.7718 109.374 18.2768C109.95 17.7819 110.313 17.0924 110.392 16.3464ZM99.6156 16.4866V12.4604H106.579C107.587 12.4604 107.913 12.8936 107.913 14.3716C107.913 15.8495 107.672 16.4866 106.5 16.4866H99.6156ZM136.936 9.73391H126.127V23.2456H128.971V19.022H136.936C137.741 19.0203 138.513 18.7063 139.083 18.1488C139.652 17.5912 139.973 16.8355 139.975 16.047V12.7407C139.978 12.3476 139.902 11.9577 139.751 11.5934C139.6 11.2292 139.377 10.8978 139.094 10.6183C138.812 10.3389 138.476 10.1168 138.105 9.9651C137.735 9.81331 137.337 9.73474 136.936 9.73391ZM137.124 15.6584C137.129 15.7757 137.109 15.8926 137.066 16.0022C137.023 16.1118 136.958 16.2118 136.875 16.2962C136.792 16.3807 136.692 16.4478 136.582 16.4937C136.471 16.5395 136.353 16.5631 136.233 16.563H128.964V12.4604H136.246C136.482 12.4604 136.709 12.5524 136.876 12.716C137.043 12.8797 137.137 13.1017 137.137 13.3332L137.124 15.6584ZM197.825 9.73391H190.225C189.823 9.73474 189.426 9.81331 189.055 9.9651C188.685 10.1168 188.349 10.3389 188.066 10.6183C187.784 10.8978 187.56 11.2292 187.409 11.5934C187.258 11.9577 187.182 12.3476 187.186 12.7407V23.2456H189.912V20.5063H197.962V23.2456H200.864V12.7407C200.869 12.3474 200.793 11.9571 200.642 11.5925C200.492 11.2278 200.268 10.8961 199.986 10.6165C199.703 10.3368 199.367 10.1148 198.996 9.96338C198.625 9.81188 198.227 9.73389 197.825 9.73391ZM189.912 17.7925V13.244C189.912 13.0362 189.997 12.8369 190.147 12.6899C190.297 12.543 190.5 12.4604 190.713 12.4604H197.175C197.387 12.4604 197.59 12.543 197.741 12.6899C197.891 12.8369 197.975 13.0362 197.975 13.244V17.7925H189.912Z" fill="white"></path> <path d="M84.8764 28.1895C85.0941 28.168 85.314 28.1965 85.5185 28.2728C85.7229 28.3491 85.9064 28.4711 86.0542 28.6291C86.3134 29.0037 86.4391 29.4515 86.4121 29.9032V30.5402C86.4391 30.9919 86.3134 31.4397 86.0542 31.8143C85.9064 31.9723 85.7229 32.0943 85.5185 32.1706C85.314 32.2469 85.0941 32.2754 84.8764 32.2539H81.9155V33.872C81.9155 33.993 81.8635 34.0567 81.7593 34.0567H80.985C80.8743 34.0567 80.8223 33.993 80.8223 33.872V28.4125C80.8223 28.2469 80.8938 28.1577 81.037 28.1577H84.8764V28.1895ZM81.9155 31.1709H84.6551C84.7494 31.1785 84.8442 31.166 84.933 31.134C85.0218 31.1021 85.1024 31.0517 85.1692 30.9862C85.2797 30.8177 85.3322 30.619 85.3189 30.4192V30.1007C85.3322 29.9009 85.2797 29.7022 85.1692 29.5337C85.1041 29.4659 85.0237 29.4139 84.9345 29.3819C84.8452 29.3498 84.7496 29.3385 84.6551 29.3489H81.9936C81.9285 29.3489 81.9025 29.3489 81.9025 29.4509L81.9155 31.1709ZM91.2081 28.1895C91.4258 28.168 91.6457 28.1965 91.8501 28.2728C92.0546 28.3491 92.2381 28.4711 92.3859 28.6291C92.6451 29.0037 92.7708 29.4515 92.7438 29.9032V30.381C92.7633 30.7776 92.6782 31.1725 92.4965 31.5276C92.4085 31.6697 92.2903 31.7916 92.15 31.885C92.0096 31.9784 91.8504 32.0412 91.6831 32.0691L92.9065 33.8529C92.9163 33.8727 92.9214 33.8945 92.9214 33.9166C92.9214 33.9386 92.9163 33.9604 92.9065 33.9803C92.9065 34.0376 92.8609 34.0631 92.7894 34.0631H91.8653C91.8229 34.0759 91.7776 34.0759 91.7352 34.0631C91.7079 34.0385 91.6839 34.0107 91.6636 33.9803L90.5313 32.2284H88.2212V33.9038C88.2212 34.0249 88.1691 34.0886 88.065 34.0886H87.2906C87.18 34.0886 87.1279 34.0249 87.1279 33.9038V28.4443C87.1279 28.2787 87.1995 28.1895 87.3427 28.1895H91.2081ZM88.2472 31.2155H90.9868C91.0811 31.2231 91.1759 31.2105 91.2647 31.1786C91.3535 31.1467 91.4341 31.0963 91.5009 31.0308C91.6114 30.8623 91.6639 30.6636 91.6506 30.4638V30.107C91.6639 29.9072 91.6114 29.7085 91.5009 29.5401C91.4341 29.4745 91.3535 29.4241 91.2647 29.3922C91.1759 29.3603 91.0811 29.3477 90.9868 29.3553H88.3383C88.2732 29.3553 88.2472 29.3872 88.2472 29.4572V31.2155ZM98.5875 28.1895C98.6981 28.1895 98.7501 28.2532 98.7501 28.3743V29.1769C98.7501 29.298 98.6981 29.3617 98.5875 29.3617H95.4639C95.3077 29.3552 95.1515 29.3745 95.0019 29.419C94.8874 29.4501 94.7853 29.5145 94.709 29.6038C94.6321 29.7107 94.5789 29.8322 94.5529 29.9605C94.5215 30.1436 94.5063 30.3291 94.5073 30.5147V30.5784H98.5419C98.646 30.5784 98.6981 30.6422 98.6981 30.7632V31.4002C98.6981 31.5213 98.646 31.585 98.5419 31.585H94.5073V31.7251C94.5031 31.9109 94.5183 32.0966 94.5529 32.2794C94.5718 32.4097 94.6257 32.5328 94.709 32.6361C94.7853 32.7253 94.8874 32.7898 95.0019 32.8209C95.1515 32.8653 95.3077 32.8847 95.4639 32.8782H98.5875C98.6981 32.8782 98.7501 32.9419 98.7501 33.0629V33.8656C98.7501 33.9866 98.6981 34.0504 98.5875 34.0504H95.4379C95.1253 34.058 94.8134 34.0172 94.5138 33.9293C94.2638 33.8659 94.0379 33.7332 93.8631 33.5471C93.6892 33.35 93.5684 33.1135 93.5117 32.8591C93.4328 32.5206 93.3956 32.1742 93.4011 31.8271V30.4256C93.3956 30.0806 93.4328 29.7362 93.5117 29.3999C93.5684 29.1455 93.6892 28.9089 93.8631 28.7119C94.0404 28.5274 94.2652 28.3932 94.5138 28.3233C94.8134 28.2354 95.1253 28.1946 95.4379 28.2023H98.5875V28.1895ZM100.995 28.1895C101.086 28.1768 101.178 28.1768 101.268 28.1895C101.341 28.2082 101.41 28.2407 101.47 28.2851C101.533 28.3396 101.586 28.4042 101.626 28.4762C101.68 28.5812 101.725 28.6898 101.763 28.8011L103.253 32.8463C103.259 32.8677 103.271 32.8867 103.289 32.9005C103.307 32.9143 103.328 32.9221 103.351 32.9228H103.468C103.491 32.9221 103.512 32.9143 103.53 32.9005C103.547 32.8867 103.56 32.8677 103.566 32.8463L105.056 28.8011C105.093 28.6898 105.139 28.5812 105.192 28.4762C105.23 28.4021 105.283 28.3369 105.349 28.2851C105.407 28.2409 105.473 28.2084 105.544 28.1895H106.579C106.672 28.1771 106.768 28.1888 106.856 28.2234C106.944 28.2581 107.021 28.3144 107.08 28.387C107.184 28.5988 107.229 28.8341 107.21 29.0686V33.9038C107.21 34.0249 107.158 34.0886 107.047 34.0886H106.318C106.214 34.0886 106.162 34.0249 106.162 33.9038V29.5018C106.162 29.4445 106.162 29.419 106.103 29.419H106.038C106.017 29.4172 105.996 29.4234 105.979 29.4364C105.962 29.4494 105.951 29.4683 105.947 29.4891L104.503 33.2668C104.455 33.3986 104.396 33.5265 104.327 33.649C104.275 33.743 104.209 33.8289 104.132 33.9038C104.067 33.9693 103.986 34.0175 103.897 34.044C103.796 34.0744 103.691 34.0894 103.585 34.0886H103.24C103.134 34.0899 103.029 34.0748 102.928 34.044C102.839 34.0175 102.758 33.9693 102.694 33.9038C102.616 33.8289 102.55 33.743 102.498 33.649C102.429 33.5265 102.371 33.3986 102.323 33.2668L100.865 29.4891C100.862 29.4683 100.851 29.4494 100.834 29.4364C100.817 29.4234 100.795 29.4172 100.774 29.419H100.709C100.67 29.419 100.65 29.419 100.65 29.5018V33.9038C100.65 34.0249 100.598 34.0886 100.494 34.0886H99.7653C99.6547 34.0886 99.6026 34.0249 99.6026 33.9038V29.0686C99.5831 28.8341 99.628 28.5988 99.7328 28.387C99.7931 28.3144 99.8714 28.2581 99.9603 28.2235C100.049 28.189 100.146 28.1772 100.24 28.1895H100.995ZM109.058 28.1895C109.162 28.1895 109.214 28.2532 109.214 28.3743V33.9038C109.214 34.0249 109.162 34.0886 109.058 34.0886H108.303C108.192 34.0886 108.14 34.0249 108.14 33.9038V28.3743C108.14 28.2532 108.192 28.1895 108.303 28.1895H109.058ZM111.088 28.1895C111.192 28.1895 111.244 28.2532 111.244 28.3743V31.7379C111.24 31.9258 111.255 32.1136 111.29 32.2985C111.316 32.4268 111.369 32.5483 111.446 32.6552C111.522 32.7445 111.624 32.8089 111.739 32.84C111.889 32.8844 112.045 32.9038 112.201 32.8973H114.153C114.309 32.9038 114.466 32.8844 114.615 32.84C114.73 32.8089 114.832 32.7445 114.908 32.6552C114.987 32.55 115.038 32.4275 115.058 32.2985C115.089 32.1132 115.104 31.9257 115.103 31.7379V28.3743C115.103 28.2532 115.155 28.1895 115.259 28.1895H116.04C116.144 28.1895 116.196 28.2532 116.196 28.3743V31.8525C116.201 32.1993 116.166 32.5454 116.092 32.8846C116.035 33.1375 115.917 33.3734 115.747 33.5726C115.573 33.7587 115.347 33.8914 115.097 33.9548C114.796 34.0396 114.485 34.0804 114.173 34.0758H112.11C111.797 34.0835 111.485 34.0427 111.186 33.9548C110.936 33.8914 110.71 33.7587 110.535 33.5726C110.361 33.3755 110.24 33.139 110.184 32.8846C110.105 32.5461 110.068 32.1996 110.073 31.8525V28.3743C110.073 28.2532 110.125 28.1895 110.236 28.1895H111.088ZM118.572 28.1895C118.662 28.1768 118.754 28.1768 118.845 28.1895C118.918 28.2082 118.986 28.2407 119.047 28.2851C119.11 28.3396 119.162 28.4042 119.203 28.4762C119.256 28.5812 119.302 28.6898 119.34 28.8011L120.83 32.8463C120.835 32.8677 120.848 32.8867 120.866 32.9005C120.883 32.9143 120.905 32.9221 120.927 32.9228H121.038C121.06 32.9221 121.082 32.9143 121.1 32.9005C121.117 32.8867 121.13 32.8677 121.136 32.8463L122.626 28.8011C122.663 28.6898 122.709 28.5812 122.762 28.4762C122.8 28.4021 122.853 28.3369 122.919 28.2851C122.977 28.2409 123.043 28.2084 123.114 28.1895H124.149C124.242 28.1771 124.338 28.1888 124.426 28.2234C124.514 28.2581 124.591 28.3144 124.65 28.387C124.754 28.5988 124.799 28.8341 124.78 29.0686V33.9038C124.78 34.0249 124.728 34.0886 124.617 34.0886H123.888C123.784 34.0886 123.732 34.0249 123.732 33.9038V29.5018C123.732 29.4445 123.732 29.419 123.673 29.419H123.608C123.587 29.4172 123.566 29.4234 123.549 29.4364C123.532 29.4494 123.521 29.4683 123.517 29.4891L122.073 33.2668C122.025 33.3986 121.966 33.5265 121.897 33.649C121.845 33.743 121.779 33.8289 121.702 33.9038C121.637 33.9693 121.556 34.0175 121.467 34.044C121.366 34.0744 121.261 34.0894 121.155 34.0886H120.81C120.704 34.0899 120.599 34.0748 120.498 34.044C120.41 34.0141 120.331 33.9663 120.264 33.9038C120.186 33.8289 120.12 33.743 120.068 33.649C119.999 33.5265 119.941 33.3986 119.893 33.2668L118.435 29.4891C118.432 29.4683 118.421 29.4494 118.404 29.4364C118.387 29.4234 118.365 29.4172 118.344 29.419H118.279C118.24 29.419 118.22 29.419 118.22 29.5018V33.9038C118.22 34.0249 118.168 34.0886 118.064 34.0886H117.335C117.225 34.0886 117.173 34.0249 117.173 33.9038V29.0686C117.153 28.8341 117.198 28.5988 117.303 28.387C117.363 28.3144 117.441 28.2581 117.53 28.2235C117.619 28.189 117.716 28.1772 117.81 28.1895H118.572ZM132.146 28.1895C132.364 28.168 132.584 28.1965 132.788 28.2728C132.993 28.3491 133.176 28.4711 133.324 28.6291C133.583 29.0037 133.709 29.4515 133.682 29.9032V30.5402C133.709 30.9919 133.583 31.4397 133.324 31.8143C133.176 31.9723 132.993 32.0943 132.788 32.1706C132.584 32.2469 132.364 32.2754 132.146 32.2539H129.185V33.872C129.185 33.993 129.133 34.0567 129.029 34.0567H128.255C128.144 34.0567 128.092 33.993 128.092 33.872V28.4125C128.092 28.2469 128.164 28.1577 128.307 28.1577H132.146V28.1895ZM129.185 31.1709H131.925C132.019 31.1785 132.114 31.166 132.203 31.134C132.291 31.1021 132.372 31.0517 132.439 30.9862C132.549 30.8177 132.602 30.619 132.589 30.4192V30.1007C132.602 29.9009 132.549 29.7022 132.439 29.5337C132.374 29.4659 132.293 29.4139 132.204 29.3819C132.115 29.3498 132.019 29.3385 131.925 29.3489H129.276C129.211 29.3489 129.185 29.3489 129.185 29.4509V31.1709ZM138.452 28.1895C138.669 28.168 138.889 28.1965 139.094 28.2728C139.298 28.3491 139.482 28.4711 139.63 28.6291C139.889 29.0037 140.015 29.4515 139.987 29.9032V30.381C140.007 30.7776 139.922 31.1725 139.74 31.5276C139.652 31.6697 139.534 31.7916 139.394 31.885C139.253 31.9784 139.094 32.0412 138.927 32.0691L140.15 33.8529C140.16 33.8727 140.165 33.8945 140.165 33.9166C140.165 33.9386 140.16 33.9604 140.15 33.9803C140.15 34.0376 140.105 34.0631 140.033 34.0631H139.109C139.067 34.0759 139.021 34.0759 138.979 34.0631C138.952 34.0385 138.928 34.0107 138.907 33.9803L137.775 32.2284H135.465V33.9038C135.465 34.0249 135.413 34.0886 135.309 34.0886H134.534C134.424 34.0886 134.372 34.0249 134.372 33.9038V28.4443C134.372 28.2787 134.443 28.1895 134.586 28.1895H138.452ZM135.491 31.2155H138.237C138.331 31.2231 138.426 31.2105 138.515 31.1786C138.604 31.1467 138.684 31.0963 138.751 31.0308C138.862 30.8623 138.914 30.6636 138.901 30.4638V30.107C138.914 29.9072 138.862 29.7085 138.751 29.5401C138.684 29.4745 138.604 29.4241 138.515 29.3922C138.426 29.3603 138.331 29.3477 138.237 29.3553H135.589C135.523 29.3553 135.497 29.3872 135.497 29.4572L135.491 31.2155ZM144.894 28.1895C145.207 28.1818 145.519 28.2227 145.818 28.3106C146.067 28.3804 146.292 28.5147 146.469 28.6992C146.638 28.8983 146.756 29.1342 146.814 29.3872C146.893 29.7235 146.93 30.0678 146.924 30.4128V31.8525C146.93 32.1996 146.893 32.5461 146.814 32.8846C146.756 33.1375 146.638 33.3734 146.469 33.5726C146.294 33.7587 146.068 33.8914 145.818 33.9548C145.518 34.0396 145.207 34.0804 144.894 34.0758H142.682C142.369 34.0835 142.057 34.0427 141.758 33.9548C141.507 33.8935 141.28 33.7604 141.107 33.5726C140.933 33.3755 140.812 33.139 140.755 32.8846C140.676 32.5461 140.639 32.1996 140.645 31.8525V30.4128C140.639 30.0678 140.676 29.7235 140.755 29.3872C140.812 29.1327 140.933 28.8962 141.107 28.6992C141.283 28.5129 141.508 28.3783 141.758 28.3106C142.057 28.2227 142.369 28.1818 142.682 28.1895H144.894ZM141.777 31.7697C141.773 31.9555 141.788 32.1412 141.823 32.324C141.849 32.4522 141.902 32.5738 141.979 32.6807C142.055 32.7699 142.157 32.8344 142.272 32.8654C142.421 32.9099 142.577 32.9293 142.734 32.9228H144.855C145.011 32.9293 145.167 32.9099 145.317 32.8654C145.432 32.8344 145.534 32.7699 145.61 32.6807C145.687 32.5738 145.74 32.4522 145.766 32.324C145.801 32.1412 145.816 31.9555 145.812 31.7697V30.4956C145.816 30.3098 145.801 30.1241 145.766 29.9414C145.74 29.8131 145.687 29.6916 145.61 29.5847C145.534 29.4954 145.432 29.431 145.317 29.3999C145.167 29.3554 145.011 29.336 144.855 29.3426H142.734C142.577 29.336 142.421 29.3554 142.272 29.3999C142.157 29.431 142.055 29.4954 141.979 29.5847C141.902 29.6916 141.849 29.8131 141.823 29.9414C141.788 30.1241 141.773 30.3098 141.777 30.4956V31.7697ZM151.844 28.1895C152.062 28.168 152.282 28.1965 152.486 28.2728C152.691 28.3491 152.874 28.4711 153.022 28.6291C153.281 29.0037 153.407 29.4515 153.38 29.9032V30.5402C153.407 30.9919 153.281 31.4397 153.022 31.8143C152.874 31.9723 152.691 32.0943 152.486 32.1706C152.282 32.2469 152.062 32.2754 151.844 32.2539H148.883V33.872C148.883 33.993 148.831 34.0567 148.727 34.0567H147.953C147.842 34.0567 147.79 33.993 147.79 33.872V28.4125C147.79 28.2469 147.861 28.1577 148.005 28.1577H151.844V28.1895ZM148.877 31.1709H151.623C151.717 31.1785 151.812 31.166 151.901 31.134C151.989 31.1021 152.07 31.0517 152.137 30.9862C152.247 30.8177 152.3 30.619 152.286 30.4192V30.1007C152.3 29.9009 152.247 29.7022 152.137 29.5337C152.07 29.4682 151.989 29.4177 151.901 29.3858C151.812 29.3539 151.717 29.3413 151.623 29.3489H148.974C148.909 29.3489 148.883 29.3489 148.883 29.4509L148.877 31.1709ZM159.184 28.1895C159.295 28.1895 159.347 28.2532 159.347 28.3743V29.1769C159.347 29.298 159.295 29.3617 159.184 29.3617H156.061C155.905 29.3552 155.748 29.3745 155.599 29.419C155.484 29.4501 155.382 29.5145 155.306 29.6038C155.229 29.7107 155.176 29.8322 155.15 29.9605C155.118 30.1436 155.103 30.3291 155.104 30.5147V30.5784H159.145C159.249 30.5784 159.301 30.6422 159.301 30.7632V31.4002C159.301 31.5213 159.249 31.585 159.145 31.585H155.104V31.7251C155.1 31.9109 155.115 32.0966 155.15 32.2794C155.169 32.4097 155.223 32.5328 155.306 32.6361C155.382 32.7253 155.484 32.7898 155.599 32.8209C155.748 32.8653 155.905 32.8847 156.061 32.8782H159.184C159.295 32.8782 159.347 32.9419 159.347 33.0629V33.8656C159.347 33.9866 159.295 34.0504 159.184 34.0504H156.035C155.722 34.058 155.41 34.0172 155.111 33.9293C154.861 33.8659 154.635 33.7332 154.46 33.5471C154.286 33.35 154.165 33.1135 154.109 32.8591C154.03 32.5206 153.992 32.1742 153.998 31.8271V30.4256C153.993 30.0806 154.03 29.7362 154.109 29.3999C154.189 29.1605 154.325 28.9425 154.505 28.7629C154.683 28.5784 154.908 28.4441 155.156 28.3743C155.456 28.2864 155.768 28.2455 156.08 28.2532H159.23L159.184 28.1895ZM164.228 28.1895C164.445 28.168 164.665 28.1965 164.87 28.2728C165.074 28.3491 165.258 28.4711 165.405 28.6291C165.665 29.0037 165.79 29.4515 165.763 29.9032V30.381C165.784 30.7784 165.696 31.174 165.51 31.5276C165.421 31.6697 165.303 31.7916 165.163 31.885C165.023 31.9784 164.863 32.0412 164.696 32.0691L165.919 33.8529C165.929 33.8727 165.934 33.8945 165.934 33.9166C165.934 33.9386 165.929 33.9604 165.919 33.9803C165.919 34.0376 165.874 34.0631 165.802 34.0631H164.917C164.875 34.0759 164.83 34.0759 164.787 34.0631C164.76 34.0385 164.736 34.0107 164.716 33.9803L163.583 32.2284H161.273V33.9038C161.273 34.0249 161.221 34.0886 161.117 34.0886H160.343C160.232 34.0886 160.18 34.0249 160.18 33.9038V28.4443C160.18 28.2787 160.252 28.1895 160.395 28.1895H164.228ZM161.26 31.2155H163.987C164.081 31.2231 164.176 31.2105 164.265 31.1786C164.353 31.1467 164.434 31.0963 164.501 31.0308C164.611 30.8623 164.664 30.6636 164.651 30.4638V30.107C164.664 29.9072 164.611 29.7085 164.501 29.5401C164.434 29.4745 164.353 29.4241 164.265 29.3922C164.176 29.3603 164.081 29.3477 163.987 29.3553H161.384C161.319 29.3553 161.293 29.3872 161.293 29.4572L161.26 31.2155ZM171.997 28.1895C172.108 28.1895 172.16 28.2532 172.16 28.3743V29.2024C172.16 29.3298 172.108 29.3935 171.997 29.3935H169.752V33.9038C169.752 34.0249 169.7 34.0886 169.596 34.0886H168.822C168.718 34.0886 168.666 34.0249 168.666 33.9038V29.3808H166.414C166.303 29.3808 166.251 29.3171 166.251 29.1897V28.3615C166.251 28.2405 166.303 28.1768 166.414 28.1768L171.997 28.1895ZM173.748 28.1895C173.852 28.1895 173.904 28.2532 173.904 28.3743V33.9038C173.904 34.0249 173.852 34.0886 173.748 34.0886H172.967C172.856 34.0886 172.804 34.0249 172.804 33.9038V28.3743C172.804 28.2532 172.856 28.1895 172.967 28.1895H173.748ZM179.943 28.1895C180.054 28.1895 180.106 28.2532 180.106 28.3743V29.1769C180.106 29.298 180.054 29.3617 179.943 29.3617H176.819C176.663 29.3552 176.507 29.3745 176.357 29.419C176.243 29.4501 176.141 29.5145 176.064 29.6038C175.988 29.7107 175.934 29.8322 175.908 29.9605C175.877 30.1436 175.862 30.3291 175.863 30.5147V30.5784H179.884C179.988 30.5784 180.041 30.6422 180.041 30.7632V31.4002C180.041 31.5213 179.988 31.585 179.884 31.585H175.843V31.7251C175.839 31.9109 175.854 32.0966 175.889 32.2794C175.908 32.4097 175.962 32.5328 176.045 32.6361C176.121 32.7253 176.223 32.7898 176.338 32.8209C176.487 32.8653 176.644 32.8847 176.8 32.8782H179.923C180.034 32.8782 180.086 32.9419 180.086 33.0629V33.8656C180.086 33.9866 180.034 34.0504 179.923 34.0504H176.774C176.461 34.058 176.149 34.0172 175.85 33.9293C175.6 33.8659 175.374 33.7332 175.199 33.5471C175.025 33.35 174.904 33.1135 174.848 32.8591C174.769 32.5206 174.732 32.1742 174.737 31.8271V30.4256C174.732 30.0806 174.769 29.7362 174.848 29.3999C174.904 29.1455 175.025 28.9089 175.199 28.7119C175.376 28.5274 175.601 28.3932 175.85 28.3233C176.149 28.2354 176.461 28.1946 176.774 28.2023H179.923L179.943 28.1895ZM185.897 28.1895C186.001 28.1895 186.053 28.2532 186.053 28.3743V29.1769C186.053 29.298 186.001 29.3617 185.897 29.3617H182.312C182.256 29.3581 182.2 29.3679 182.149 29.3901C182.098 29.4123 182.053 29.4462 182.019 29.4891C181.955 29.5925 181.925 29.7126 181.934 29.8331V30.1198C181.934 30.4319 182.058 30.5912 182.305 30.5912H184.986C185.161 30.5783 185.337 30.6056 185.5 30.6708C185.663 30.7361 185.808 30.8375 185.923 30.967C186.151 31.2798 186.262 31.6602 186.236 32.0437V32.7189C186.251 33.0745 186.143 33.4246 185.93 33.7127C185.811 33.8446 185.663 33.9477 185.497 34.014C185.331 34.0804 185.152 34.1081 184.973 34.0949H181.01C180.899 34.0949 180.847 34.0312 180.847 33.9102V33.1266C180.847 33.0056 180.899 32.9419 181.01 32.9419H184.765C184.821 32.9454 184.876 32.9357 184.927 32.9135C184.978 32.8913 185.023 32.8573 185.058 32.8145C185.121 32.7111 185.151 32.5909 185.142 32.4705V32.1074C185.142 31.7952 185.019 31.6359 184.771 31.6359H182.09C181.923 31.6465 181.756 31.6212 181.599 31.5617C181.443 31.5023 181.302 31.4103 181.186 31.2919C180.958 30.9792 180.847 30.5988 180.873 30.2153V29.5783C180.858 29.2228 180.966 28.8726 181.179 28.5845C181.298 28.4527 181.446 28.3495 181.612 28.2832C181.778 28.2169 181.957 28.1892 182.136 28.2023L185.897 28.1895Z" fill="white"></path> </g> <defs> <clipPath id="clip0_1294_2"> <rect width="216" height="39" fill="white"></rect> </clipPath> </defs> </svg> 